<svg id="LOGO" xmlns="http://www.w3.org/2000/svg" viewBox="0 0 202 63.42">
 <g id="logo"> <circle cx="31.45" cy="31.62" r="28.91" fill="none" stroke="#fff" stroke-miterlimit="10"/> <g> <path d="M39.49,48.15c-1.51-.56-2.5-1.52-3.05-2.49-.55-.98-.69-2.84-1.37-3.42-.04-.03-.08-.07-.13-.1-.82-.53-1.9.14-1.9,1.12v6.63c0,.71-.57,1.28-1.28,1.28h-.02c-.71,0-1.28-.57-1.28-1.28v-27.99c0-.71.57-1.28,1.28-1.28h.02c.71,0,1.28.57,1.28,1.28v17.47c.04.3.28.52.54.54.32.02.52-.26.53-.27.33-.55.58-.99.72-1.23,1.9-3.29,2.96-4.94,4.1-5.82.8-.62,3.08-1.5,3.83-.74.61.62.16,2.44-.75,3.58-.43.54-1.15,1.02-2.59,1.98-.56.37-1.74,1.03-2.46,1.58-.93.71-.92.92-.56,1.3.31.33.93.33,2.04.86.93.44,1.49,1.04,1.9,1.48,1.59,1.7,2.77,5.03,1.92,5.74-.42.35-1.51.25-2.78-.22Z" fill="#fff"/> <path d="M32.99,27.02c4.78-.52,8.61-3.94,8.61-9.57,0-1.34-.22-2.61-.55-3.66-.22-.69.15-1.43.84-1.64l.08-.02c.65-.2,1.36.14,1.59.78.36,1.02.7,2.52.7,4.65,0,8.06-5.85,12.92-12.84,12.92-8.02,0-12.77-5.3-12.77-12.33,0-2.22.35-3.99.78-5.26.21-.62.84-.86,1.51-.82h0c.71.17,1.14.9.93,1.61-.34,1.17-.53,2.49-.53,3.88,0,5.67,4.08,9.27,9.09,9.42" fill="#fff"/> </g> <g> <path d="M102.09,21.4v1.76h-19.24c.18,3.55,1.57,6.62,4.16,9.2,2.77,2.79,6.12,4.18,10.04,4.18s7.29-1.39,10.08-4.18c1.5-1.48,2.59-3.14,3.28-4.98h1.91c-.77,2.32-2.07,4.39-3.91,6.23-3.14,3.14-6.93,4.71-11.37,4.71s-8.19-1.56-11.32-4.69-4.7-6.91-4.7-11.35,1.57-8.2,4.7-11.33,6.9-4.69,11.32-4.69,8.23,1.56,11.37,4.67c.91.94,1.69,1.91,2.32,2.93h-2.17c-.43-.56-.91-1.11-1.45-1.64-2.79-2.79-6.15-4.18-10.08-4.18s-7.27,1.39-10.04,4.18c-2.59,2.58-3.98,5.64-4.16,9.18h19.24Z" fill="#fff"/> <path d="M117.89,22.81v15.14h-1.76V6.69h1.76v13.3l9.98-13.3h2.27l-9.38,12.58,12.11,18.67h-2.17l-11.09-17.27-1.72,2.13Z" fill="#fff"/> <path d="M136.83,18.73h7.27v.02c1.69.08,3.06.63,4.1,1.67s1.56,2.2,1.56,3.51v.02c0,1.29-.51,2.45-1.54,3.5-.38.36-.77.66-1.19.9.42.23.81.53,1.19.88,1.03,1.05,1.54,2.23,1.54,3.52v.02c0,1.3-.52,2.47-1.56,3.51s-2.41,1.59-4.1,1.67v.02h-7.27v-19.22ZM138.57,27.36h5.47v-.02c1.26-.05,2.24-.42,2.92-1.11s1.03-1.46,1.03-2.3-.34-1.61-1.03-2.29-1.66-1.06-2.92-1.12v-.02h-5.47v6.88ZM138.57,29.31v6.88h5.47v-.02c1.26-.07,2.24-.44,2.92-1.12s1.03-1.45,1.03-2.29-.34-1.61-1.03-2.3-1.66-1.06-2.92-1.11v-.02h-5.47Z" fill="#fff"/> <path d="M156.74,12.48c.34.34.52.75.52,1.23s-.17.91-.52,1.25-.76.51-1.24.51-.9-.17-1.24-.51-.52-.75-.52-1.25.17-.89.52-1.23.76-.51,1.24-.51.9.17,1.24.51ZM156.38,18.76v19.18h-1.76v-19.18h1.76Z" fill="#fff"/> <path d="M171.13,20.54v17.4h-1.74v-17.4h-7.91v-1.78h17.58v1.78h-7.93Z" fill="#fff"/> <path d="M182.81,18.76h1.74v16.25l12.27-16.25h1.89v19.18h-1.76v-16.39l-12.4,16.37v.02h-1.74v-19.18Z" fill="#fff"/> </g> <g> <path d="M120.3,57.11v-9.8h.71v9.16h5.64v.64h-6.36Z" fill="#fff"/> <path d="M136.08,57.11l-4.37-9.8h.78l4.17,9.37h-.43l4.19-9.37h.74l-4.37,9.8h-.71Z" fill="#fff"/> <path d="M148.34,57.11v-9.8h.71v9.8h-.71Z" fill="#fff"/> <path d="M160.61,57.11l-4.37-9.8h.78l4.17,9.37h-.43l4.19-9.37h.74l-4.37,9.8h-.71Z" fill="#fff"/> </g> <line x1="72.02" y1="2.71" x2="72.02" y2="60.7" fill="none" stroke="#fff" stroke-miterlimit="10" stroke-width=".75"/> </g> </svg>