<svg id="LOGO" xmlns="http://www.w3.org/2000/svg" viewBox="0 0 59.7 60.21">
 <g id="logo"> <circle cx="29.89" cy="30.29" r="28.91" fill="none" stroke="#fff" stroke-miterlimit="10"/> <g> <path d="M37.92,46.82c-1.51-.56-2.5-1.52-3.05-2.49-.55-.98-.69-2.84-1.37-3.42-.04-.03-.08-.07-.13-.1-.82-.53-1.9.14-1.9,1.12v6.63c0,.71-.57,1.28-1.28,1.28h-.02c-.71,0-1.28-.57-1.28-1.28v-27.99c0-.71.57-1.28,1.28-1.28h.02c.71,0,1.28.57,1.28,1.28v17.47c.04.3.28.52.54.54.32.02.52-.26.53-.27.33-.55.58-.99.72-1.23,1.9-3.29,2.96-4.94,4.1-5.82.8-.62,3.08-1.5,3.83-.74.61.62.16,2.44-.75,3.58-.43.54-1.15,1.02-2.59,1.98-.56.37-1.74,1.03-2.46,1.58-.93.71-.92.92-.56,1.3.31.33.93.33,2.04.86.93.44,1.49,1.04,1.9,1.48,1.59,1.7,2.77,5.03,1.92,5.74-.42.35-1.51.25-2.78-.22Z" fill="#fff"/> <path d="M31.43,25.69c4.78-.52,8.61-3.94,8.61-9.57,0-1.34-.22-2.61-.55-3.66-.22-.69.15-1.43.84-1.64l.08-.02c.65-.2,1.36.14,1.59.78.36,1.02.7,2.52.7,4.65,0,8.06-5.85,12.92-12.84,12.92-8.02,0-12.77-5.3-12.77-12.33,0-2.22.35-3.99.78-5.26.21-.62.84-.86,1.51-.82h0c.71.17,1.14.9.93,1.61-.34,1.17-.53,2.49-.53,3.88,0,5.67,4.08,9.27,9.09,9.42" fill="#fff"/> </g> </g> </svg>